<?xml version="1.0" encoding="UTF-8" standalone="no"?>
<!DOCTYPE svg PUBLIC "-//W3C//DTD SVG 1.1//EN"
 "http://www.w3.org/Graphics/SVG/1.1/DTD/svg11.dtd">
<!-- Generated by graphviz version 2.43.0 (0)
 -->
<!-- Title: process_map Pages: 1 -->
<svg width="3964pt" height="44pt"
 viewBox="0.00 0.00 3964.00 44.00" xmlns="http://www.w3.org/2000/svg" xmlns:xlink="http://www.w3.org/1999/xlink">
<g id="graph0" class="graph" transform="scale(1 1) rotate(0) translate(4 40)">
<title>process_map</title>
<polygon fill="#343541" stroke="transparent" points="-4,4 -4,-40 3960,-40 3960,4 -4,4"/>
<!-- Start -->
<g id="node1" class="node">
<title>Start</title>
<path fill="#b4d7a8" stroke="grey" d="M42,-36C42,-36 12,-36 12,-36 6,-36 0,-30 0,-24 0,-24 0,-12 0,-12 0,-6 6,0 12,0 12,0 42,0 42,0 48,0 54,-6 54,-12 54,-12 54,-24 54,-24 54,-30 48,-36 42,-36"/>
<text text-anchor="middle" x="27" y="-14.3" font-family="Helvetica,sans-Serif" font-size="14.00" fill="#343541">Start</text>
</g>
<!-- Define project in OpenLCA -->
<g id="node3" class="node">
<title>Define project in OpenLCA</title>
<defs>
<linearGradient id="l_0" gradientUnits="userSpaceOnUse" x1="190" y1="-36" x2="190" y2="0" >
<stop offset="0" style="stop-color:white;stop-opacity:1.;"/>
<stop offset="1" style="stop-color:lightgrey;stop-opacity:1.;"/>
</linearGradient>
</defs>
<path fill="url(#l_0)" stroke="grey" d="M278,-36C278,-36 102,-36 102,-36 96,-36 90,-30 90,-24 90,-24 90,-12 90,-12 90,-6 96,0 102,0 102,0 278,0 278,0 284,0 290,-6 290,-12 290,-12 290,-24 290,-24 290,-30 284,-36 278,-36"/>
<text text-anchor="middle" x="190" y="-14.3" font-family="Helvetica,sans-Serif" font-size="14.00" fill="#343541">Define project in OpenLCA</text>
</g>
<!-- Start&#45;&gt;Define project in OpenLCA -->
<g id="edge1" class="edge">
<title>Start&#45;&gt;Define project in OpenLCA</title>
<path fill="none" stroke="#aaaaaa" d="M54.23,-18C61.69,-18 70.31,-18 79.52,-18"/>
<polygon fill="#aaaaaa" stroke="#aaaaaa" points="79.71,-21.5 89.71,-18 79.71,-14.5 79.71,-21.5"/>
</g>
<!-- End -->
<g id="node2" class="node">
<title>End</title>
<path fill="#cdb4db" stroke="grey" d="M3944,-36C3944,-36 3914,-36 3914,-36 3908,-36 3902,-30 3902,-24 3902,-24 3902,-12 3902,-12 3902,-6 3908,0 3914,0 3914,0 3944,0 3944,0 3950,0 3956,-6 3956,-12 3956,-12 3956,-24 3956,-24 3956,-30 3950,-36 3944,-36"/>
<text text-anchor="middle" x="3929" y="-14.3" font-family="Helvetica,sans-Serif" font-size="14.00" fill="#343541">End</text>
</g>
<!-- Goal and Scope Definition -->
<g id="node4" class="node">
<title>Goal and Scope Definition</title>
<defs>
<linearGradient id="l_1" gradientUnits="userSpaceOnUse" x1="424" y1="-36" x2="424" y2="0" >
<stop offset="0" style="stop-color:white;stop-opacity:1.;"/>
<stop offset="1" style="stop-color:lightgrey;stop-opacity:1.;"/>
</linearGradient>
</defs>
<path fill="url(#l_1)" stroke="grey" d="M510,-36C510,-36 338,-36 338,-36 332,-36 326,-30 326,-24 326,-24 326,-12 326,-12 326,-6 332,0 338,0 338,0 510,0 510,0 516,0 522,-6 522,-12 522,-12 522,-24 522,-24 522,-30 516,-36 510,-36"/>
<text text-anchor="middle" x="424" y="-14.3" font-family="Helvetica,sans-Serif" font-size="14.00" fill="#343541">Goal and Scope Definition</text>
</g>
<!-- Define project in OpenLCA&#45;&gt;Goal and Scope Definition -->
<g id="edge2" class="edge">
<title>Define project in OpenLCA&#45;&gt;Goal and Scope Definition</title>
<path fill="none" stroke="#aaaaaa" d="M290.06,-18C298.56,-18 307.18,-18 315.74,-18"/>
<polygon fill="#aaaaaa" stroke="#aaaaaa" points="315.75,-21.5 325.75,-18 315.75,-14.5 315.75,-21.5"/>
</g>
<!-- Input project metadata -->
<g id="node5" class="node">
<title>Input project metadata</title>
<defs>
<linearGradient id="l_2" gradientUnits="userSpaceOnUse" x1="646" y1="-36" x2="646" y2="0" >
<stop offset="0" style="stop-color:white;stop-opacity:1.;"/>
<stop offset="1" style="stop-color:lightgrey;stop-opacity:1.;"/>
</linearGradient>
</defs>
<path fill="url(#l_2)" stroke="grey" d="M722,-36C722,-36 570,-36 570,-36 564,-36 558,-30 558,-24 558,-24 558,-12 558,-12 558,-6 564,0 570,0 570,0 722,0 722,0 728,0 734,-6 734,-12 734,-12 734,-24 734,-24 734,-30 728,-36 722,-36"/>
<text text-anchor="middle" x="646" y="-14.3" font-family="Helvetica,sans-Serif" font-size="14.00" fill="#343541">Input project metadata</text>
</g>
<!-- Goal and Scope Definition&#45;&gt;Input project metadata -->
<g id="edge3" class="edge">
<title>Goal and Scope Definition&#45;&gt;Input project metadata</title>
<path fill="none" stroke="#aaaaaa" d="M522.14,-18C530.56,-18 539.1,-18 547.53,-18"/>
<polygon fill="#aaaaaa" stroke="#aaaaaa" points="547.75,-21.5 557.75,-18 547.75,-14.5 547.75,-21.5"/>
</g>
<!-- Set functional unit and boundaries -->
<g id="node6" class="node">
<title>Set functional unit and boundaries</title>
<defs>
<linearGradient id="l_3" gradientUnits="userSpaceOnUse" x1="898.5" y1="-36" x2="898.5" y2="0" >
<stop offset="0" style="stop-color:white;stop-opacity:1.;"/>
<stop offset="1" style="stop-color:lightgrey;stop-opacity:1.;"/>
</linearGradient>
</defs>
<path fill="url(#l_3)" stroke="grey" d="M1015,-36C1015,-36 782,-36 782,-36 776,-36 770,-30 770,-24 770,-24 770,-12 770,-12 770,-6 776,0 782,0 782,0 1015,0 1015,0 1021,0 1027,-6 1027,-12 1027,-12 1027,-24 1027,-24 1027,-30 1021,-36 1015,-36"/>
<text text-anchor="middle" x="898.5" y="-14.3" font-family="Helvetica,sans-Serif" font-size="14.00" fill="#343541">Set functional unit and boundaries</text>
</g>
<!-- Input project metadata&#45;&gt;Set functional unit and boundaries -->
<g id="edge4" class="edge">
<title>Input project metadata&#45;&gt;Set functional unit and boundaries</title>
<path fill="none" stroke="#aaaaaa" d="M734.26,-18C742.58,-18 751.15,-18 759.8,-18"/>
<polygon fill="#aaaaaa" stroke="#aaaaaa" points="759.98,-21.5 769.98,-18 759.98,-14.5 759.98,-21.5"/>
</g>
<!-- Life Cycle Inventory (LCI) -->
<g id="node7" class="node">
<title>Life Cycle Inventory (LCI)</title>
<defs>
<linearGradient id="l_4" gradientUnits="userSpaceOnUse" x1="1158.5" y1="-36" x2="1158.5" y2="0" >
<stop offset="0" style="stop-color:white;stop-opacity:1.;"/>
<stop offset="1" style="stop-color:lightgrey;stop-opacity:1.;"/>
</linearGradient>
</defs>
<path fill="url(#l_4)" stroke="grey" d="M1242,-36C1242,-36 1075,-36 1075,-36 1069,-36 1063,-30 1063,-24 1063,-24 1063,-12 1063,-12 1063,-6 1069,0 1075,0 1075,0 1242,0 1242,0 1248,0 1254,-6 1254,-12 1254,-12 1254,-24 1254,-24 1254,-30 1248,-36 1242,-36"/>
<text text-anchor="middle" x="1158.5" y="-14.3" font-family="Helvetica,sans-Serif" font-size="14.00" fill="#343541">Life Cycle Inventory (LCI)</text>
</g>
<!-- Set functional unit and boundaries&#45;&gt;Life Cycle Inventory (LCI) -->
<g id="edge5" class="edge">
<title>Set functional unit and boundaries&#45;&gt;Life Cycle Inventory (LCI)</title>
<path fill="none" stroke="#aaaaaa" d="M1027.37,-18C1035.83,-18 1044.31,-18 1052.64,-18"/>
<polygon fill="#aaaaaa" stroke="#aaaaaa" points="1052.73,-21.5 1062.73,-18 1052.73,-14.5 1052.73,-21.5"/>
</g>
<!-- Import/create datasets -->
<g id="node8" class="node">
<title>Import/create datasets</title>
<defs>
<linearGradient id="l_5" gradientUnits="userSpaceOnUse" x1="1377" y1="-36" x2="1377" y2="0" >
<stop offset="0" style="stop-color:white;stop-opacity:1.;"/>
<stop offset="1" style="stop-color:lightgrey;stop-opacity:1.;"/>
</linearGradient>
</defs>
<path fill="url(#l_5)" stroke="grey" d="M1452,-36C1452,-36 1302,-36 1302,-36 1296,-36 1290,-30 1290,-24 1290,-24 1290,-12 1290,-12 1290,-6 1296,0 1302,0 1302,0 1452,0 1452,0 1458,0 1464,-6 1464,-12 1464,-12 1464,-24 1464,-24 1464,-30 1458,-36 1452,-36"/>
<text text-anchor="middle" x="1377" y="-14.3" font-family="Helvetica,sans-Serif" font-size="14.00" fill="#343541">Import/create datasets</text>
</g>
<!-- Life Cycle Inventory (LCI)&#45;&gt;Import/create datasets -->
<g id="edge6" class="edge">
<title>Life Cycle Inventory (LCI)&#45;&gt;Import/create datasets</title>
<path fill="none" stroke="#aaaaaa" d="M1254.15,-18C1262.56,-18 1271.08,-18 1279.51,-18"/>
<polygon fill="#aaaaaa" stroke="#aaaaaa" points="1279.73,-21.5 1289.73,-18 1279.73,-14.5 1279.73,-21.5"/>
</g>
<!-- Map flows to processes -->
<g id="node9" class="node">
<title>Map flows to processes</title>
<defs>
<linearGradient id="l_6" gradientUnits="userSpaceOnUse" x1="1589" y1="-36" x2="1589" y2="0" >
<stop offset="0" style="stop-color:white;stop-opacity:1.;"/>
<stop offset="1" style="stop-color:lightgrey;stop-opacity:1.;"/>
</linearGradient>
</defs>
<path fill="url(#l_6)" stroke="grey" d="M1666,-36C1666,-36 1512,-36 1512,-36 1506,-36 1500,-30 1500,-24 1500,-24 1500,-12 1500,-12 1500,-6 1506,0 1512,0 1512,0 1666,0 1666,0 1672,0 1678,-6 1678,-12 1678,-12 1678,-24 1678,-24 1678,-30 1672,-36 1666,-36"/>
<text text-anchor="middle" x="1589" y="-14.3" font-family="Helvetica,sans-Serif" font-size="14.00" fill="#343541">Map flows to processes</text>
</g>
<!-- Import/create datasets&#45;&gt;Map flows to processes -->
<g id="edge7" class="edge">
<title>Import/create datasets&#45;&gt;Map flows to processes</title>
<path fill="none" stroke="#aaaaaa" d="M1464.02,-18C1472.49,-18 1481.13,-18 1489.7,-18"/>
<polygon fill="#aaaaaa" stroke="#aaaaaa" points="1489.73,-21.5 1499.73,-18 1489.73,-14.5 1489.73,-21.5"/>
</g>
<!-- Life Cycle Impact Assessment (LCIA) -->
<g id="node10" class="node">
<title>Life Cycle Impact Assessment (LCIA)</title>
<defs>
<linearGradient id="l_7" gradientUnits="userSpaceOnUse" x1="1849.5" y1="-36" x2="1849.5" y2="0" >
<stop offset="0" style="stop-color:white;stop-opacity:1.;"/>
<stop offset="1" style="stop-color:lightgrey;stop-opacity:1.;"/>
</linearGradient>
</defs>
<path fill="url(#l_7)" stroke="grey" d="M1973,-36C1973,-36 1726,-36 1726,-36 1720,-36 1714,-30 1714,-24 1714,-24 1714,-12 1714,-12 1714,-6 1720,0 1726,0 1726,0 1973,0 1973,0 1979,0 1985,-6 1985,-12 1985,-12 1985,-24 1985,-24 1985,-30 1979,-36 1973,-36"/>
<text text-anchor="middle" x="1849.5" y="-14.3" font-family="Helvetica,sans-Serif" font-size="14.00" fill="#343541">Life Cycle Impact Assessment (LCIA)</text>
</g>
<!-- Map flows to processes&#45;&gt;Life Cycle Impact Assessment (LCIA) -->
<g id="edge8" class="edge">
<title>Map flows to processes&#45;&gt;Life Cycle Impact Assessment (LCIA)</title>
<path fill="none" stroke="#aaaaaa" d="M1678.24,-18C1686.54,-18 1695.1,-18 1703.75,-18"/>
<polygon fill="#aaaaaa" stroke="#aaaaaa" points="1703.94,-21.5 1713.94,-18 1703.94,-14.5 1703.94,-21.5"/>
</g>
<!-- Assign impact categories -->
<g id="node11" class="node">
<title>Assign impact categories</title>
<defs>
<linearGradient id="l_8" gradientUnits="userSpaceOnUse" x1="2116.5" y1="-36" x2="2116.5" y2="0" >
<stop offset="0" style="stop-color:white;stop-opacity:1.;"/>
<stop offset="1" style="stop-color:lightgrey;stop-opacity:1.;"/>
</linearGradient>
</defs>
<path fill="url(#l_8)" stroke="grey" d="M2200,-36C2200,-36 2033,-36 2033,-36 2027,-36 2021,-30 2021,-24 2021,-24 2021,-12 2021,-12 2021,-6 2027,0 2033,0 2033,0 2200,0 2200,0 2206,0 2212,-6 2212,-12 2212,-12 2212,-24 2212,-24 2212,-30 2206,-36 2200,-36"/>
<text text-anchor="middle" x="2116.5" y="-14.3" font-family="Helvetica,sans-Serif" font-size="14.00" fill="#343541">Assign impact categories</text>
</g>
<!-- Life Cycle Impact Assessment (LCIA)&#45;&gt;Assign impact categories -->
<g id="edge9" class="edge">
<title>Life Cycle Impact Assessment (LCIA)&#45;&gt;Assign impact categories</title>
<path fill="none" stroke="#aaaaaa" d="M1985.33,-18C1993.87,-18 2002.41,-18 2010.78,-18"/>
<polygon fill="#aaaaaa" stroke="#aaaaaa" points="2010.91,-21.5 2020.91,-18 2010.91,-14.5 2010.91,-21.5"/>
</g>
<!-- Run the calculation -->
<g id="node12" class="node">
<title>Run the calculation</title>
<defs>
<linearGradient id="l_9" gradientUnits="userSpaceOnUse" x1="2322.5" y1="-36" x2="2322.5" y2="0" >
<stop offset="0" style="stop-color:white;stop-opacity:1.;"/>
<stop offset="1" style="stop-color:lightgrey;stop-opacity:1.;"/>
</linearGradient>
</defs>
<path fill="url(#l_9)" stroke="grey" d="M2385,-36C2385,-36 2260,-36 2260,-36 2254,-36 2248,-30 2248,-24 2248,-24 2248,-12 2248,-12 2248,-6 2254,0 2260,0 2260,0 2385,0 2385,0 2391,0 2397,-6 2397,-12 2397,-12 2397,-24 2397,-24 2397,-30 2391,-36 2385,-36"/>
<text text-anchor="middle" x="2322.5" y="-14.3" font-family="Helvetica,sans-Serif" font-size="14.00" fill="#343541">Run the calculation</text>
</g>
<!-- Assign impact categories&#45;&gt;Run the calculation -->
<g id="edge10" class="edge">
<title>Assign impact categories&#45;&gt;Run the calculation</title>
<path fill="none" stroke="#aaaaaa" d="M2212.04,-18C2220.56,-18 2229.15,-18 2237.57,-18"/>
<polygon fill="#aaaaaa" stroke="#aaaaaa" points="2237.74,-21.5 2247.74,-18 2237.74,-14.5 2237.74,-21.5"/>
</g>
<!-- Interpretation and Improvement -->
<g id="node13" class="node">
<title>Interpretation and Improvement</title>
<defs>
<linearGradient id="l_10" gradientUnits="userSpaceOnUse" x1="2553" y1="-36" x2="2553" y2="0" >
<stop offset="0" style="stop-color:white;stop-opacity:1.;"/>
<stop offset="1" style="stop-color:lightgrey;stop-opacity:1.;"/>
</linearGradient>
</defs>
<path fill="url(#l_10)" stroke="grey" d="M2661,-36C2661,-36 2445,-36 2445,-36 2439,-36 2433,-30 2433,-24 2433,-24 2433,-12 2433,-12 2433,-6 2439,0 2445,0 2445,0 2661,0 2661,0 2667,0 2673,-6 2673,-12 2673,-12 2673,-24 2673,-24 2673,-30 2667,-36 2661,-36"/>
<text text-anchor="middle" x="2553" y="-14.3" font-family="Helvetica,sans-Serif" font-size="14.00" fill="#343541">Interpretation and Improvement</text>
</g>
<!-- Run the calculation&#45;&gt;Interpretation and Improvement -->
<g id="edge11" class="edge">
<title>Run the calculation&#45;&gt;Interpretation and Improvement</title>
<path fill="none" stroke="#aaaaaa" d="M2397.06,-18C2405.31,-18 2413.89,-18 2422.58,-18"/>
<polygon fill="#aaaaaa" stroke="#aaaaaa" points="2422.84,-21.5 2432.84,-18 2422.84,-14.5 2422.84,-21.5"/>
</g>
<!-- Interpret results -->
<g id="node14" class="node">
<title>Interpret results</title>
<defs>
<linearGradient id="l_11" gradientUnits="userSpaceOnUse" x1="2773" y1="-36" x2="2773" y2="0" >
<stop offset="0" style="stop-color:white;stop-opacity:1.;"/>
<stop offset="1" style="stop-color:lightgrey;stop-opacity:1.;"/>
</linearGradient>
</defs>
<path fill="url(#l_11)" stroke="grey" d="M2825,-36C2825,-36 2721,-36 2721,-36 2715,-36 2709,-30 2709,-24 2709,-24 2709,-12 2709,-12 2709,-6 2715,0 2721,0 2721,0 2825,0 2825,0 2831,0 2837,-6 2837,-12 2837,-12 2837,-24 2837,-24 2837,-30 2831,-36 2825,-36"/>
<text text-anchor="middle" x="2773" y="-14.3" font-family="Helvetica,sans-Serif" font-size="14.00" fill="#343541">Interpret results</text>
</g>
<!-- Interpretation and Improvement&#45;&gt;Interpret results -->
<g id="edge12" class="edge">
<title>Interpretation and Improvement&#45;&gt;Interpret results</title>
<path fill="none" stroke="#aaaaaa" d="M2673.21,-18C2681.8,-18 2690.31,-18 2698.52,-18"/>
<polygon fill="#aaaaaa" stroke="#aaaaaa" points="2698.74,-21.5 2708.74,-18 2698.74,-14.5 2698.74,-21.5"/>
</g>
<!-- Perform sensitivity checks -->
<g id="node15" class="node">
<title>Perform sensitivity checks</title>
<defs>
<linearGradient id="l_12" gradientUnits="userSpaceOnUse" x1="2972.5" y1="-36" x2="2972.5" y2="0" >
<stop offset="0" style="stop-color:white;stop-opacity:1.;"/>
<stop offset="1" style="stop-color:lightgrey;stop-opacity:1.;"/>
</linearGradient>
</defs>
<path fill="url(#l_12)" stroke="grey" d="M3060,-36C3060,-36 2885,-36 2885,-36 2879,-36 2873,-30 2873,-24 2873,-24 2873,-12 2873,-12 2873,-6 2879,0 2885,0 2885,0 3060,0 3060,0 3066,0 3072,-6 3072,-12 3072,-12 3072,-24 3072,-24 3072,-30 3066,-36 3060,-36"/>
<text text-anchor="middle" x="2972.5" y="-14.3" font-family="Helvetica,sans-Serif" font-size="14.00" fill="#343541">Perform sensitivity checks</text>
</g>
<!-- Interpret results&#45;&gt;Perform sensitivity checks -->
<g id="edge13" class="edge">
<title>Interpret results&#45;&gt;Perform sensitivity checks</title>
<path fill="none" stroke="#aaaaaa" d="M2837.03,-18C2845.23,-18 2853.8,-18 2862.48,-18"/>
<polygon fill="#aaaaaa" stroke="#aaaaaa" points="2862.71,-21.5 2872.71,-18 2862.71,-14.5 2862.71,-21.5"/>
</g>
<!-- Reporting and Documentation -->
<g id="node16" class="node">
<title>Reporting and Documentation</title>
<defs>
<linearGradient id="l_13" gradientUnits="userSpaceOnUse" x1="3220.5" y1="-36" x2="3220.5" y2="0" >
<stop offset="0" style="stop-color:white;stop-opacity:1.;"/>
<stop offset="1" style="stop-color:lightgrey;stop-opacity:1.;"/>
</linearGradient>
</defs>
<path fill="url(#l_13)" stroke="grey" d="M3321,-36C3321,-36 3120,-36 3120,-36 3114,-36 3108,-30 3108,-24 3108,-24 3108,-12 3108,-12 3108,-6 3114,0 3120,0 3120,0 3321,0 3321,0 3327,0 3333,-6 3333,-12 3333,-12 3333,-24 3333,-24 3333,-30 3327,-36 3321,-36"/>
<text text-anchor="middle" x="3220.5" y="-14.3" font-family="Helvetica,sans-Serif" font-size="14.00" fill="#343541">Reporting and Documentation</text>
</g>
<!-- Perform sensitivity checks&#45;&gt;Reporting and Documentation -->
<g id="edge14" class="edge">
<title>Perform sensitivity checks&#45;&gt;Reporting and Documentation</title>
<path fill="none" stroke="#aaaaaa" d="M3072.14,-18C3080.59,-18 3089.21,-18 3097.82,-18"/>
<polygon fill="#aaaaaa" stroke="#aaaaaa" points="3097.9,-21.5 3107.9,-18 3097.9,-14.5 3097.9,-21.5"/>
</g>
<!-- Export results as reports -->
<g id="node17" class="node">
<title>Export results as reports</title>
<defs>
<linearGradient id="l_14" gradientUnits="userSpaceOnUse" x1="3463" y1="-36" x2="3463" y2="0" >
<stop offset="0" style="stop-color:white;stop-opacity:1.;"/>
<stop offset="1" style="stop-color:lightgrey;stop-opacity:1.;"/>
</linearGradient>
</defs>
<path fill="url(#l_14)" stroke="grey" d="M3545,-36C3545,-36 3381,-36 3381,-36 3375,-36 3369,-30 3369,-24 3369,-24 3369,-12 3369,-12 3369,-6 3375,0 3381,0 3381,0 3545,0 3545,0 3551,0 3557,-6 3557,-12 3557,-12 3557,-24 3557,-24 3557,-30 3551,-36 3545,-36"/>
<text text-anchor="middle" x="3463" y="-14.3" font-family="Helvetica,sans-Serif" font-size="14.00" fill="#343541">Export results as reports</text>
</g>
<!-- Reporting and Documentation&#45;&gt;Export results as reports -->
<g id="edge15" class="edge">
<title>Reporting and Documentation&#45;&gt;Export results as reports</title>
<path fill="none" stroke="#aaaaaa" d="M3333.3,-18C3341.76,-18 3350.28,-18 3358.68,-18"/>
<polygon fill="#aaaaaa" stroke="#aaaaaa" points="3358.86,-21.5 3368.86,-18 3358.86,-14.5 3358.86,-21.5"/>
</g>
<!-- Conduct external review if necessary -->
<g id="node18" class="node">
<title>Conduct external review if necessary</title>
<defs>
<linearGradient id="l_15" gradientUnits="userSpaceOnUse" x1="3729.5" y1="-36" x2="3729.5" y2="0" >
<stop offset="0" style="stop-color:white;stop-opacity:1.;"/>
<stop offset="1" style="stop-color:lightgrey;stop-opacity:1.;"/>
</linearGradient>
</defs>
<path fill="url(#l_15)" stroke="grey" d="M3854,-36C3854,-36 3605,-36 3605,-36 3599,-36 3593,-30 3593,-24 3593,-24 3593,-12 3593,-12 3593,-6 3599,0 3605,0 3605,0 3854,0 3854,0 3860,0 3866,-6 3866,-12 3866,-12 3866,-24 3866,-24 3866,-30 3860,-36 3854,-36"/>
<text text-anchor="middle" x="3729.5" y="-14.3" font-family="Helvetica,sans-Serif" font-size="14.00" fill="#343541">Conduct external review if necessary</text>
</g>
<!-- Export results as reports&#45;&gt;Conduct external review if necessary -->
<g id="edge16" class="edge">
<title>Export results as reports&#45;&gt;Conduct external review if necessary</title>
<path fill="none" stroke="#aaaaaa" d="M3557.25,-18C3565.59,-18 3574.16,-18 3582.8,-18"/>
<polygon fill="#aaaaaa" stroke="#aaaaaa" points="3582.97,-21.5 3592.97,-18 3582.97,-14.5 3582.97,-21.5"/>
</g>
<!-- Conduct external review if necessary&#45;&gt;End -->
<g id="edge17" class="edge">
<title>Conduct external review if necessary&#45;&gt;End</title>
<path fill="none" stroke="#aaaaaa" d="M3866.05,-18C3875.21,-18 3883.88,-18 3891.67,-18"/>
<polygon fill="#aaaaaa" stroke="#aaaaaa" points="3891.72,-21.5 3901.72,-18 3891.72,-14.5 3891.72,-21.5"/>
</g>
</g>
</svg>
